<?xml version="1.0" encoding="UTF-8" standalone="no"?>
<!-- Created with Inkscape (http://www.inkscape.org/) -->
<svg
   xmlns:dc="http://purl.org/dc/elements/1.1/"
   xmlns:cc="http://web.resource.org/cc/"
   xmlns:rdf="http://www.w3.org/1999/02/22-rdf-syntax-ns#"
   xmlns:svg="http://www.w3.org/2000/svg"
   xmlns="http://www.w3.org/2000/svg"
   xmlns:sodipodi="http://sodipodi.sourceforge.net/DTD/sodipodi-0.dtd"
   xmlns:inkscape="http://www.inkscape.org/namespaces/inkscape"
   width="990"
   height="765"
   id="svg8660"
   sodipodi:version="0.32"
   inkscape:version="0.45pre1"
   sodipodi:docbase="C:\cutting files"
   sodipodi:docname="ladybug2009.svg"
   inkscape:output_extension="org.inkscape.output.svg.inkscape"
   version="1.0"
   sodipodi:modified="true">
  <defs
     id="defs8662" />
  <sodipodi:namedview
     inkscape:document-units="in"
     pagecolor="#ffffff"
     bordercolor="#666666"
     borderopacity="1.0"
     inkscape:pageopacity="0.0"
     inkscape:pageshadow="2"
     inkscape:zoom="0.6745098"
     inkscape:cx="495"
     inkscape:cy="382.5"
     inkscape:current-layer="layer1"
     id="namedview8664"
     showguides="true"
     inkscape:guide-bbox="true"
     inkscape:window-width="1280"
     inkscape:window-height="712"
     inkscape:window-x="-4"
     inkscape:window-y="-4"
     width="11in"
     height="8.5in"
     units="in" />
  <metadata
     id="metadata8666">
    <rdf:RDF>
      <cc:Work
         rdf:about="">
        <dc:format>image/svg+xml</dc:format>
        <dc:type
           rdf:resource="http://purl.org/dc/dcmitype/StillImage" />
      </cc:Work>
    </rdf:RDF>
  </metadata>
  <g
     inkscape:label="Layer 1"
     inkscape:groupmode="layer"
     id="layer1">
    <path
       style="fill:#2b0000;fill-rule:evenodd;stroke:#000000;stroke-width:0.20867842px;stroke-linecap:butt;stroke-linejoin:miter;stroke-opacity:1"
       d="M 239.74322,203.30518 C 240.60142,205.15584 242.82803,208.67425 243.33653,209.16928 C 242.63303,209.70419 241.76336,210.37821 240.85454,211.05563 C 240.63695,210.50354 237.70069,202.85538 232.34714,201.91159 C 229.24029,201.36387 226.28374,205.88327 225.8016,207.36493 C 224.5982,211.06321 228.58765,212.35737 228.74097,210.03044 C 228.783,209.39284 230.03472,207.36161 232.02568,207.31201 C 235.46321,207.22649 237.65996,212.99142 237.80405,213.53924 C 237.35353,213.80569 234.07506,217.08725 233.40859,218.02695 C 228.71456,224.6449 234.05119,232.50511 232.96405,233.48685 C 228.73238,237.30798 225.82693,227.36769 224.07336,229.67314 C 222.62952,231.57135 225.1996,235.81 230.07458,239.14591 C 158.00414,227.64579 133.50139,250.34976 115.45865,270.27076 C 80.043478,309.37275 82.896248,396.74327 111.45785,459.6034 C 114.68726,466.71088 123.42435,474.94866 126.09046,483.26485 C 127.12954,486.50599 121.31401,489.83429 119.9781,493.55779 C 117.33372,500.92837 109.04584,516.07663 117.64429,541.12674 C 123.65855,558.6481 153.43325,568.55618 161.24576,570.48825 C 164.66598,571.33405 173.21571,572.19365 182.54639,568.43787 C 188.21371,566.15654 186.96955,564.28995 189.65895,563.63998 C 192.34828,562.98995 193.0265,565.94877 195.84539,569.094 C 196.81407,570.17484 199.34002,574.41479 204.36061,572.61922 C 204.8905,572.4297 207.94447,574.95861 206.14378,579.54613 C 205.35406,581.55814 203.31635,580.11384 202.80978,579.79701 C 200.69617,578.47509 198.47969,582.5823 202.27615,584.41834 C 204.2052,585.35126 209.63529,584.26634 210.1446,578.1567 C 210.32584,575.98258 207.33756,570.79851 207.84784,570.57027 C 208.51192,570.27328 209.2438,569.62939 209.7371,569.42205 C 210.5826,569.06673 211.82163,573.15696 213.69287,573.75006 C 222.47258,576.53286 223.62233,567.43978 221.96181,565.11625 C 219.8467,562.15655 219.21992,563.87759 219.66505,565.69036 C 219.91901,566.72458 220.63331,568.33581 217.54452,569.39988 C 216.40735,569.79162 213.50664,570.00503 212.15103,566.13662 C 212.00228,565.71224 213.16215,562.1322 212.29319,556.75067 C 211.8015,553.70561 208.23709,550.93945 209.10735,550.96858 C 211.32521,551.04285 217.07802,554.06845 221.03569,555.2334 C 300.94388,578.75459 400.98961,530.49637 428.30011,517.05521 C 471.61246,495.73853 540.42495,414.07581 550.9547,398.09182 C 569.29318,370.25429 586.22227,354.20415 604.55821,344.28971 C 606.61216,345.49512 608.81639,346.30537 611.00396,346.54512 C 620.25415,347.55901 626.27272,346.03027 630.82281,344.45373 C 631.4062,344.12235 631.78391,344.11561 631.52667,344.20769 C 631.30173,344.28819 631.05526,344.3732 630.82281,344.45373 C 629.95043,344.94928 628.06242,351.21127 630.50474,352.13032 C 634.7973,353.74559 637.0473,346.52701 639.0467,341.21412 C 639.84274,339.09882 646.76596,352.26477 654.93883,360.56977 C 661.21106,366.94333 665.15199,368.75877 670.27529,361.14388 C 675.60038,353.22894 679.11187,344.60344 680.24027,329.64994 C 703.99749,332.59862 734.51726,342.76859 748.95797,369.83751 C 751.41774,374.44831 754.08499,379.27242 756.73733,384.31323 C 753.86213,385.97048 752.54417,382.26115 748.47639,382.63192 C 743.55457,383.08058 741.05266,385.43128 740.64397,385.38088 C 736.9188,384.9212 736.48828,382.55486 736.53904,381.23766 C 736.67699,377.65989 737.27085,376.91988 738.80775,377.05487 C 740.56333,377.20906 743.37917,375.2813 738.69662,374.47138 C 737.64657,374.28977 734.53123,375.19403 733.2891,377.2377 C 731.75944,379.75447 731.72178,382.81387 733.88083,385.62546 C 735.13845,387.26318 738.16058,387.62328 738.06687,388.61903 C 738.01215,389.19995 737.63751,390.12887 737.54824,390.91546 C 737.4797,391.52004 732.16074,389.52229 730.36159,390.42338 C 725.42906,392.89385 725.36432,398.74442 726.67313,400.56965 C 729.24887,404.16178 732.46481,400.62994 730.76908,398.70695 C 730.36263,398.24599 729.04229,396.64008 730.5969,395.27965 C 734.14156,392.1778 737.17746,394.46239 737.14776,395.07801 C 736.86587,400.91017 740.72758,402.66318 741.9195,403.42283 C 745.38804,405.6336 748.13281,405.58651 748.25412,408.6308 C 748.37544,411.67508 746.42365,410.79878 745.88328,417.44746 C 744.99376,428.39383 747.93602,437.3377 749.55068,440.78085 C 751.74296,445.45564 758.40302,457.68938 766.96163,467.27185 C 753.369,504.8384 724.37439,540.39838 667.34877,505.65506 C 665.99719,504.83161 639.88034,475.95594 660.12507,451.07379 C 681.57153,424.71466 692.63223,445.94749 697.31783,453.86232 C 706.44767,469.28424 711.26019,478.66556 719.35935,472.31579 C 725.92384,467.16922 730.06881,453.73143 727.39803,437.95132 C 726.06261,430.06128 721.21868,420.97712 712.83951,415.15103 C 704.46034,409.32497 685.16712,389.39307 648.41899,412.52654 C 620.92418,429.83489 622.80638,473.48837 625.19204,487.85772 C 627.57769,502.22706 644.95254,579.55237 745.66101,549.32828 C 754.81859,546.57994 787.42897,534.08869 800.78332,479.69717 C 815.18713,477.35582 822.88755,468.91349 827.34429,465.26246 C 839.97121,454.91835 844.62067,430.52036 838.34652,409.656 C 837.62864,407.26822 836.92498,405.07451 836.19794,403.09475 C 833.04767,394.51573 829.00842,388.90027 816.82364,378.24409 C 807.04735,369.69428 800.41919,367.46122 789.96631,367.29503 C 776.93591,341.47644 760.15028,326.14511 755.8853,321.36639 C 734.68161,297.60852 701.71073,292.49862 675.83198,292.743 C 674.67419,289.51844 673.74133,287.60373 673.79452,287.32998 C 674.0665,285.93025 673.57585,286.1387 674.90586,285.64866 C 681.40326,283.25468 685.51228,278.7974 684.20405,276.42193 C 682.78978,273.85386 678.52302,283.19363 674.86881,278.71837 C 673.93003,277.56868 680.25957,270.69719 676.53582,263.38147 C 676.00706,262.34277 673.45311,258.20544 673.04463,257.86762 C 673.26301,257.35013 676.26087,253.01398 679.64756,253.66602 C 681.60908,254.04365 682.36156,255.56795 682.31478,256.20512 C 682.14397,258.53018 685.54822,257.84459 684.87085,253.99071 C 684.5995,252.4468 682.61851,248.99798 680.24027,248.44406 C 674.92926,247.20702 670.52882,255.72979 670.16416,255.26194 C 669.6709,254.62914 668.51854,253.54993 667.94148,252.96552 C 667.63067,252.65074 672.47603,249.73058 673.02943,247.75753 C 675.36436,239.43286 668.20641,236.71172 665.53359,237.99769 C 662.36521,239.52209 664.31043,243.23375 666.1263,240.87981 C 666.50647,240.38695 668.31968,241.79488 669.18845,243.68586 C 670.98547,247.59701 664.38144,250.14288 663.87557,249.70998 C 656.48645,243.3863 648.22093,253.13983 647.41877,253.08853 C 645.17481,252.94512 645.867,252.15687 645.97404,250.34103 C 646.16367,247.12447 650.80983,245.80341 650.86393,241.77042 C 650.9108,238.27842 647.65325,241.80672 644.30704,244.68196 C 641.31991,247.24868 640.38787,249.75454 639.41715,250.99715 C 637.81574,253.04725 625.29186,243.35819 612.15235,246.07621 C 588.88884,250.88846 577.21943,262.37942 575.99683,268.95852 C 575.9153,269.39713 573.67856,275.6442 577.07114,279.33348 C 585.26354,288.25398 591.28628,290.0653 602.11326,295.4085 C 602.77718,295.73614 595.58558,298.55493 594.99049,302.05581 C 594.01493,307.79486 598.55607,305.41627 598.03835,306.89066 C 597.89367,307.30276 597.74085,307.83467 597.59382,308.36695 C 573.9721,319.31831 549.17202,339.73214 518.80001,381.81176 C 515.77734,385.99961 502.27506,403.2037 484.94127,422.65544 C 480.70389,407.5167 465.37351,394.34269 447.89669,391.16152 C 445.67154,390.75646 427.02632,390.66541 412.63026,397.68175 C 400.47183,403.60758 395.54661,409.28952 389.88488,420.56404 C 382.94232,434.38977 383.14308,444.92988 386.69905,455.3796 C 389.55774,463.77965 384.32703,461.55719 382.10552,466.90276 C 380.0091,471.94748 380.54094,475.37272 380.29834,475.75078 C 378.08619,479.19729 375.89416,478.87854 374.88884,478.21607 C 372.15843,476.41653 371.50438,474.9158 372.91847,473.79206 C 374.35517,472.65034 372.96024,467.84768 370.26727,472.28732 C 367.40628,477.00394 370.81383,484.31014 377.17861,482.60872 C 379.08266,482.09973 380.85459,479.30601 381.5869,479.8612 C 382.0142,480.18518 382.57173,481.04798 383.14277,481.50151 C 383.58166,481.85006 378.59971,486.12193 378.41007,488.30879 C 377.89003,494.30439 383.39778,496.45532 385.47658,496.01825 C 389.56776,495.15802 388.23185,490.98167 385.88407,491.75345 C 385.32147,491.9384 383.16681,492.70227 382.87545,490.54203 C 382.21143,485.61646 385.60054,483.46988 386.06731,483.78541 C 390.49003,486.77493 393.88411,483.83663 395.07113,483.0188 C 398.52547,480.63888 399.88979,477.90841 402.33186,479.20509 C 404.7738,480.50177 403.10388,481.97908 408.03672,485.60228 C 408.89426,486.23212 411.39075,486.74803 410.62985,487.36562 C 376.90691,514.73685 311.51073,519.19157 307.91115,519.69007 C 262.94754,525.91686 233.37162,513.44208 213.73793,503.64568 C 211.02337,495.2491 207.13302,489.55522 198.66077,482.52671 C 186.23446,472.21803 180.24027,469.38743 171.95164,468.13299 C 162.12805,466.64626 160.63815,469.24558 159.13422,467.55889 C 133.82202,439.17107 126.72852,383.7314 128.97992,350.31783 C 132.60473,296.52165 150.49565,283.99883 196.84559,276.21688 C 200.74215,275.56267 211.60568,272.91831 221.22092,276.01186 C 222.64732,276.47077 220.81019,279.56693 220.66526,281.46588 C 219.45454,297.32961 221.77095,306.75901 226.07376,315.74833 C 230.08213,324.12268 234.21691,322.98249 241.29908,317.7167 C 250.52738,310.85524 258.595,299.23146 259.71024,301.19059 C 262.88819,306.77325 265.95742,312.29331 268.93952,311.26991 C 269.55173,311.05981 268.46533,306.31742 268.6029,306.41052 C 268.8428,306.5728 272.39276,310.25867 272.89023,311.07345 C 289.08817,337.60322 265.29022,360.66606 252.00497,370.00153 C 231.23493,384.59654 194.91928,377.95704 194.91928,377.95704 C 181.9436,400.62455 236.58923,432.98611 286.16007,399.97818 C 297.2069,392.62238 316.28814,356.99868 311.05402,327.23049 C 309.31457,317.33769 302.91809,301.58206 303.53398,300.6985 C 310.09529,291.2857 305.87784,278.55799 304.97871,274.04349 C 304.6714,272.50033 308.60001,278.53297 312.31354,278.9234 C 315.93185,279.30369 310.89901,272.17132 307.34956,267.85132 C 305.1241,265.1428 301.86929,262.20143 302.57082,261.98722 C 314.01188,258.49206 320.1681,257.7238 329.50222,250.25901 C 333.3651,247.16975 332.04106,240.6182 332.02125,240.1711 C 331.7245,233.46478 321.78445,220.18719 299.45908,211.58874 C 286.84944,206.73234 273.12249,214.20809 271.82382,211.91679 C 271.03662,210.52812 270.49372,207.93525 267.89709,204.90447 C 264.9883,201.50944 262.22229,197.46667 261.78474,200.92673 C 261.27943,204.92297 264.93825,207.02087 265.45216,210.19447 C 265.74569,212.0073 265.87464,212.92464 263.63697,212.69594 C 262.83709,212.61421 255.55382,201.96994 247.37469,207.00182 C 246.81476,207.34642 245.59904,205.30084 245.07824,204.44216 C 241.0255,197.75993 246.51471,197.31509 246.89281,197.81575 C 249.31282,201.02019 251.16333,195.68592 247.72005,194.21337 C 241.66697,191.6247 236.75537,196.86205 239.74322,203.30518 z "
       id="path3742"
       sodipodi:nodetypes="cccsssscssscsssssssssssssssssssssssssscscscsssscscsssssssssssssssssscssssssssscsssscscssssscsssssssssssssssssscssscscsssssssssssssssssssssscsssssssssssssscssssssssssssssssssss"
       inkscape:export-filename="C:\cutting files\ladybug2009.png"
       inkscape:export-xdpi="90"
       inkscape:export-ydpi="90" />
    <path
       style="fill:#ff0000;fill-rule:evenodd;stroke:#000000;stroke-width:0.20772322px;stroke-linecap:butt;stroke-linejoin:miter;stroke-opacity:1"
       d="M 166.18856,468.71813 C 164.29323,468.8134 153.33261,468.20335 146.41981,471.62471 C 145.34619,472.15609 168.92279,512.67373 168.92279,512.67373 L 130.12071,482.14726 C 130.12071,482.14726 113.31183,496.00369 111.80148,526.74 C 110.95562,543.95436 116.66764,558.14565 138.75088,569.39726 C 154.0156,577.17473 165.51483,577.41735 173.58295,575.97619 C 185.83472,573.78766 185.34714,567.2926 186.72225,558.19779 C 188.43513,546.86903 196.50709,543.43469 202.38037,543.01078 C 212.21344,542.30108 210.88549,547.11358 213.59316,544.53569 C 216.30089,541.9578 220.92386,522.71616 218.69816,510.61416 C 215.02498,490.64182 185.90095,467.73831 166.18856,468.71813 z M 174.95857,476.43724 C 178.05921,476.90254 180.40683,478.68804 180.19419,480.42443 C 179.98156,482.1608 177.28796,483.20068 174.18733,482.73541 C 171.0867,482.27012 168.74921,480.47528 168.96185,478.7389 C 169.17449,477.00251 171.85797,475.97196 174.95857,476.43724 z M 176.7689,489.07159 C 179.12114,489.42457 180.74761,492.02019 180.39828,494.87284 C 180.04895,497.72545 177.85566,499.75868 175.5034,499.40571 C 173.15123,499.05273 171.52605,496.4465 171.87537,493.59388 C 172.2247,490.74124 174.41672,488.71863 176.7689,489.07159 z M 199.07006,500.19483 C 202.06376,500.64409 204.23918,503.12041 203.92022,505.725 C 203.60127,508.32956 200.90884,510.07541 197.91512,509.62617 C 194.92141,509.17694 192.75476,506.70192 193.07371,504.09736 C 193.39267,501.49277 196.07635,499.7456 199.07006,500.19483 z M 132.39395,493.84521 C 133.67699,494.03773 134.53182,495.71091 134.30399,497.57133 C 134.07617,499.43174 132.85111,500.78199 131.56806,500.58945 C 130.28507,500.39693 129.42891,498.73438 129.65674,496.87396 C 129.88455,495.01356 131.11096,493.65268 132.39395,493.84521 z M 135.36256,509.85494 C 136.96633,510.09559 138.04275,512.10451 137.76937,514.33702 C 137.49595,516.56952 135.97657,518.17807 134.3728,517.9374 C 132.76903,517.69673 131.6913,515.69847 131.96468,513.46598 C 132.23808,511.23346 133.75879,509.61427 135.36256,509.85494 z M 152.99831,522.10601 C 155.77817,522.52317 157.82133,524.5763 157.56313,526.68475 C 157.30493,528.79324 154.84174,530.17016 152.06188,529.75302 C 149.28199,529.33587 147.23005,527.28141 147.48825,525.17289 C 147.74645,523.06445 150.21842,521.68886 152.99831,522.10601 z M 155.91308,541.76349 C 158.58603,542.1646 160.39511,545.41415 159.95466,549.01096 C 159.5142,552.60776 156.99021,555.19635 154.31724,554.79525 C 151.64428,554.39414 149.83391,551.15513 150.27436,547.55834 C 150.71482,543.96152 153.24012,541.36239 155.91308,541.76349 z M 129.46394,545.11696 C 131.49538,545.42179 132.94879,547.2856 132.70579,549.27005 C 132.46277,551.2545 130.61488,552.61209 128.58343,552.30725 C 126.552,552.00239 125.10605,550.15054 125.34906,548.16609 C 125.59207,546.18167 127.43247,544.81212 129.46394,545.11696 z "
       id="path3744"
       sodipodi:nodetypes="csccsssssssscsssscsssscsssscsssscsssscsssscsssscssss"
       inkscape:export-filename="C:\cutting files\ladybug2009.png"
       inkscape:export-xdpi="90"
       inkscape:export-ydpi="90" />
    <path
       style="fill:#ff0000;fill-rule:evenodd;stroke:#000000;stroke-width:0.2099698px;stroke-linecap:butt;stroke-linejoin:miter;stroke-opacity:1"
       d="M 228.73545,243.69281 C 221.0866,257.42548 219.45449,281.90313 220.11017,290.34652 C 220.33329,293.21983 224.52829,309.16301 225.32092,312.05178 C 227.47534,319.90371 234.46633,326.0222 238.79514,322.57929 C 252.7153,311.50759 255.3754,310.43623 261.71723,299.22879 C 267.68836,288.67656 268.47994,257.19167 270.05708,256.21416 C 271.54486,255.29204 295.88488,268.26711 306.60156,267.08467 C 318.05592,265.82092 320.63913,266.21524 335.46336,257.11458 C 340.07332,254.2845 336.94842,243.43627 333.58972,235.93909 C 330.35873,228.72689 321.34719,223.06559 319.70018,221.52561 C 314.58271,216.74025 291.50519,201.67084 278.6866,208.39419 C 269.37331,213.27905 256.65375,221.10704 254.89652,228.40437 C 249.11617,227.34262 233.55314,235.04319 228.73545,243.69281 z M 239.39739,245.57224 C 240.23373,246.77919 239.06116,252.44015 237.58997,252.65448 C 236.11886,252.86881 232.89767,247.84774 233.53251,246.42643 C 233.61186,246.24874 238.66563,244.51615 239.39739,245.57224 z M 278.58169,214.58081 C 283.03227,214.59429 282.29359,220.25864 281.45585,221.66729 C 280.61808,223.07607 275.78825,221.63435 275.23235,220.22088 C 273.91714,216.87662 278.32386,214.58008 278.58169,214.58081 z M 232.38296,265.41993 C 232.46048,267.40182 227.34805,270.55029 226.71491,269.93906 C 226.08174,269.32784 225.28079,262.85312 226.40165,262.00578 C 229.73162,259.48835 232.31029,263.5618 232.38296,265.41993 z M 293.72032,214.56642 C 295.02196,214.56924 299.45878,217.66823 299.63478,218.60356 C 299.8108,219.53875 297.74288,219.93978 294.38495,220.50099 C 292.89379,220.75022 289.38384,214.55749 293.72032,214.56642 z M 257.7879,246.03505 C 258.68434,246.4826 261.85311,251.55557 259.72498,254.64868 C 259.05786,255.61833 254.58569,254.15352 254.10096,251.99647 C 253.73743,250.37853 257.64199,245.96221 257.7879,246.03505 z M 273.39374,238.29752 C 274.81681,239.80339 273.89802,245.06747 272.85271,245.29841 C 269.51832,246.03467 267.08095,240.41651 267.15056,239.2877 C 267.1562,239.19595 272.14857,236.97969 273.39374,238.29752 z M 227.33149,283.3629 C 233.29121,283.51848 232.02798,289.75495 232.08362,290.88032 C 232.13924,292.00555 227.97144,292.43145 226.56942,291.15053 C 225.34269,290.02977 227.16232,283.35832 227.33149,283.3629 z M 315.88676,228.38101 C 316.22112,230.41813 313.98955,234.48148 313.15676,233.8982 C 312.32403,233.3149 305.15188,228.17775 309.60464,225.50801 C 309.68188,225.46171 315.57334,226.47128 315.88676,228.38101 z M 249.61282,277.94076 C 254.86569,275.77882 256.15334,280.57468 256.58242,281.6065 C 257.01154,282.63833 252.70885,284.86219 250.96711,283.9435 C 249.22539,283.02468 245.91942,279.46088 249.61282,277.94076 z M 295.23689,245.82178 C 296.50005,245.75283 299.29096,247.81473 299.19334,250.03093 C 299.09575,252.24716 295.43169,255.63159 294.84141,254.70889 C 294.28804,253.84384 291.64306,246.01793 295.23689,245.82178 z M 236.39143,300.97875 C 238.32724,300.98163 243.83216,304.92465 243.72928,306.15122 C 243.62642,307.37778 238.16382,310.43422 236.3319,309.13772 C 234.72894,308.00339 230.43779,300.97019 236.39143,300.97875 z M 325.11879,246.7921 C 325.26786,249.27746 320.43609,253.44258 319.45342,252.97444 C 318.47079,252.50641 314.24379,245.64626 318.85747,243.02118 C 320.7146,241.96452 324.97899,244.46212 325.11879,246.7921 z "
       id="path3756"
       inkscape:export-filename="C:\cutting files\ladybug2009.png"
       inkscape:export-xdpi="90"
       inkscape:export-ydpi="90"
       sodipodi:nodetypes="csssssssssscscssscssscssscssscssscssscssscssscssscssscssscsss" />
    <path
       style="fill:#ff0000;fill-rule:evenodd;stroke:#000000;stroke-width:0.20772322px;stroke-linecap:butt;stroke-linejoin:miter;stroke-opacity:1"
       d="M 448.1812,388.7946 C 449.91351,389.59638 458.16524,391.6013 466.56906,396.4975 C 467.98128,397.32027 434.16444,429.88137 435.26573,431.07269 C 437.08721,433.04309 479.27708,409.55688 479.82966,410.78878 C 486.65535,426.00569 492.80225,428.46317 487.07198,458.86827 C 483.86267,475.89713 475.03491,488.35892 451.10388,493.9212 C 434.56197,497.76599 423.41377,495.17446 415.96883,491.7816 C 404.66331,486.6294 406.65242,480.40274 407.4527,471.17759 C 408.44956,459.68651 401.46695,454.34509 395.90107,452.48615 C 386.58273,449.37392 386.73826,454.40306 384.72935,451.21808 C 382.72046,448.0331 382.76078,428.09418 387.73738,416.8163 C 395.95039,398.20411 422.50921,376.91264 448.1812,388.7946 z M 437.91711,394.17996 C 434.81777,393.87192 432.13583,395.03913 431.93495,396.78812 C 431.73406,398.53711 434.08893,400.2158 437.18841,400.52385 C 440.28788,400.83189 442.96218,399.65308 443.16306,397.90406 C 443.36394,396.15511 441.01659,394.48803 437.91711,394.17996 z M 433.21675,406.08015 C 430.86544,405.84645 428.68967,407.98265 428.35958,410.85602 C 428.02948,413.72937 429.66963,416.25559 432.02095,416.48928 C 434.37225,416.72299 436.54924,414.57611 436.87933,411.70277 C 437.20944,408.82941 435.56807,406.31386 433.21675,406.08015 z M 409.10566,411.46339 C 406.11301,411.16597 403.43582,413.05056 403.13435,415.67407 C 402.83302,418.29751 405.02166,420.66578 408.01431,420.96322 C 411.00684,421.26065 413.67543,419.37515 413.97676,416.7517 C 414.2782,414.12818 412.09819,411.76083 409.10566,411.46339 z M 474.90172,421.66012 C 473.61917,421.53262 472.40333,422.95731 472.18807,424.83122 C 471.9728,426.70516 472.83873,428.32586 474.12127,428.45335 C 475.40382,428.5808 476.61832,427.16688 476.83359,425.29294 C 477.04886,423.41901 476.18415,421.78761 474.90172,421.66012 z M 468.29476,436.57361 C 466.69161,436.41427 465.18366,438.11247 464.92537,440.36119 C 464.66705,442.60987 465.75632,444.55544 467.35948,444.71478 C 468.96274,444.8741 470.46947,443.1866 470.72778,440.93789 C 470.9862,438.68916 469.89804,436.73295 468.29476,436.57361 z M 448.41982,444.20652 C 445.64106,443.93033 443.19022,445.43394 442.9463,447.55771 C 442.70228,449.68149 444.75616,451.63283 447.53505,451.90902 C 450.31379,452.18522 452.77338,450.68247 453.0174,448.55865 C 453.26133,446.43492 451.1987,444.48271 448.41982,444.20652 z M 441.01192,462.6976 C 438.33999,462.43199 435.83528,465.16227 435.41902,468.78523 C 435.00284,472.40812 436.83204,475.55838 439.50396,475.82396 C 442.1759,476.08952 444.6795,473.36989 445.09565,469.74699 C 445.51191,466.12403 443.68394,462.96312 441.01192,462.6976 z M 465.73888,472.48043 C 463.70827,472.2786 461.87057,473.74229 461.64092,475.74113 C 461.41128,477.73998 462.87622,479.52106 464.9068,479.72294 C 466.93753,479.92474 468.76529,478.47089 468.99482,476.47204 C 469.22447,474.47321 467.76958,472.68227 465.73888,472.48043 z "
       id="path3752"
       sodipodi:nodetypes="cssssssssssscsssscsssscsssscsssscsssscsssscsssccssss"
       inkscape:export-filename="C:\cutting files\ladybug2009.png"
       inkscape:export-xdpi="90"
       inkscape:export-ydpi="90" />
    <path
       style="fill:#ff0000;fill-rule:evenodd;stroke:#000000;stroke-width:0.2099698px;stroke-linecap:butt;stroke-linejoin:miter;stroke-opacity:1"
       d="M 676.49261,293.36297 C 682.73609,307.90345 679.50689,332.75663 677.50812,340.94269 C 676.82791,343.72854 670.1422,358.61896 668.89874,361.31075 C 665.51896,368.6273 657.65488,373.31039 653.94441,369.0913 C 642.01269,355.52387 639.56522,353.9592 635.11709,341.71082 C 630.92894,330.17854 634.71298,299.20862 633.7994,297.76806 C 632.68793,296.01541 606.43691,304.68216 596.0745,301.46385 C 584.99879,298.02403 582.3921,297.91706 569.25433,286.1166 C 565.16883,282.44695 569.98434,272.36684 574.49297,265.63038 C 578.83019,259.14999 588.61049,255.30434 590.47902,254.10402 C 596.28476,250.37432 621.42271,239.96355 632.96669,249.0393 C 641.35385,255.63326 652.62332,265.77752 653.18399,273.2979 C 659.04563,273.36085 672.73705,284.61664 676.49261,293.36297 z M 665.69334,293.16927 C 664.64088,294.15225 664.9237,299.99447 666.33791,300.48756 C 667.75208,300.98056 671.72846,296.65521 671.33114,295.13435 C 671.2815,294.94424 668.9996,290.08125 665.69334,293.16927 z M 632.07845,255.14963 C 630.83991,254.4891 627.51362,260.02739 628.11273,261.57474 C 628.71182,263.12217 633.7154,262.64099 634.47232,261.34388 C 635.08733,260.28994 636.72637,257.62839 632.07845,255.14963 z M 671.14938,314.38904 C 671.07527,316.37202 673.55419,320.06773 674.27559,319.58733 C 674.99697,319.10704 676.43133,313.19594 675.8555,311.83782 C 673.85788,307.12636 671.29907,310.38518 671.14938,314.38904 z M 617.17484,252.23343 C 616.11561,251.39615 611.02749,254.18696 610.70426,255.07392 C 610.38111,255.96088 613.9546,258.65596 615.56928,257.9482 C 616.98212,257.32891 621.51028,255.66045 617.17484,252.23343 z M 647.51141,290.09958 C 646.52662,290.10821 642.6239,294.7547 644.22358,298.20759 C 644.72504,299.28995 649.36322,298.70525 650.18623,296.67473 C 650.80344,295.15175 652.71942,290.05585 647.51141,290.09958 z M 633.38555,279.49107 C 631.743,280.70079 631.80399,286.05888 632.79623,286.48654 C 635.96138,287.85059 639.37001,282.79404 639.3741,281.66266 C 639.3832,278.89612 634.82278,278.43254 633.38555,279.49107 z M 671.51705,332.68372 C 665.11375,331.36283 665.86827,338.07583 665.63316,339.17296 C 665.39803,340.27006 669.43351,341.48825 671.01928,340.49608 C 672.40676,339.62793 671.68342,332.71804 671.51705,332.68372 z M 593.13506,261.58371 C 592.47939,263.52496 594.02544,267.95267 594.93892,267.53808 C 595.8523,267.12349 604.87192,266.10683 599.78116,259.95959 C 599.72189,259.88802 593.74976,259.76377 593.13506,261.58371 z M 642.99728,325.34757 C 642.67007,326.42635 647.05387,330.48457 648.15171,328.72447 C 653.96822,319.39927 644.90324,319.06407 642.99728,325.34757 z M 610.67232,282.71085 C 609.4974,282.20034 606.36113,283.89566 606.10206,286.09605 C 605.84296,288.29645 608.90826,292.33044 609.63734,291.53532 C 610.32088,290.78987 617.96468,285.87949 610.67232,282.71085 z M 660.35565,348.66735 C 656.4731,343.343 651.81435,350.74623 651.71905,351.97347 C 651.62379,353.20062 656.51251,357.25648 658.52404,356.33144 C 660.28414,355.52205 661.43688,350.15009 660.35565,348.66735 z M 581.09427,277.93802 C 580.54913,280.35605 584.63909,285.38242 585.68171,285.10996 C 586.72421,284.83755 590.99731,279.76049 587.86367,275.42616 C 587.78551,275.31807 581.60534,275.67111 581.09427,277.93802 z "
       id="path3748"
       inkscape:export-filename="C:\cutting files\ladybug2009.png"
       inkscape:export-xdpi="90"
       inkscape:export-ydpi="90"
       sodipodi:nodetypes="csssssssssscscssscssscssscssscssscssscssscssscsscssscssscsss" />
    <path
       style="fill:#ff0000;fill-rule:evenodd;stroke:#000000;stroke-width:0.20772322px;stroke-linecap:butt;stroke-linejoin:miter;stroke-opacity:1"
       d="M 843.22194,409.16857 C 843.30263,411.26695 846.01185,420.32 845.74762,431.06668 C 845.74762,431.06668 805.16427,414.0762 804.13882,417.50213 C 803.42385,419.89077 840.7342,451.20293 840.7342,451.20293 C 840.7342,451.20293 832.94015,472.73855 806.48767,482.22793 C 791.67249,487.54257 777.81724,485.06553 762.33546,464.31745 C 751.63395,449.9757 748.47655,437.73306 747.66832,428.73057 C 746.44106,415.05998 752.23755,413.918 759.82705,410.11691 C 769.28076,405.38215 770.21205,395.86503 769.07774,389.47174 C 767.1787,378.7681 763.31651,381.42177 764.87398,377.86413 C 766.43142,374.30642 782.04935,364.43075 793.18719,363.71242 C 811.56829,362.52698 842.46076,389.12672 843.22194,409.16857 z M 834.23499,401.76145 C 833.03444,398.56276 830.87395,396.50811 829.4122,397.18042 C 827.95044,397.85272 827.73233,401.00135 828.93281,404.20002 C 830.13342,407.39866 832.29942,409.44014 833.76118,408.76784 C 835.22304,408.09552 835.43552,404.96007 834.23499,401.76145 z M 822.73879,403.06062 C 821.828,400.63402 819.1448,399.55851 816.74337,400.66302 C 814.34193,401.76752 813.12827,404.63528 814.03902,407.06187 C 814.94971,409.48841 817.6418,410.55987 820.04336,409.45536 C 822.44479,408.35085 823.64953,405.48716 822.73879,403.06062 z M 807.31327,382.04655 C 806.15415,378.95821 803.43454,377.26471 801.24187,378.27318 C 799.04923,379.28164 798.2144,382.60989 799.37352,385.69824 C 800.53266,388.7866 803.24888,390.47103 805.44153,389.46257 C 807.63418,388.45411 808.4724,385.13491 807.31327,382.04655 z M 829.93711,451.76685 C 829.44035,450.44324 827.54063,447.52524 825.97444,448.24556 C 824.40831,448.96589 822.44465,453.54093 822.94135,454.86449 C 823.43817,456.18805 826.64699,458.62384 828.21316,457.90352 C 829.77935,457.18318 830.43385,453.09036 829.93711,451.76685 z M 815.19675,452.69121 C 814.57578,451.03673 812.54588,448.21086 810.66645,449.07527 C 808.78702,449.93967 807.77156,454.16616 808.39253,455.82066 C 809.0135,457.47516 811.0345,458.11646 812.91391,457.25205 C 814.79334,456.38765 815.81773,454.34575 815.19675,452.69121 z M 799.98148,436.95822 C 798.90515,434.09049 796.58895,432.43012 794.81395,433.24648 C 793.0389,434.06287 792.46752,437.05132 793.54386,439.91906 C 794.62018,442.78681 796.93978,444.45626 798.71484,443.63986 C 800.48983,442.8235 801.05782,439.82598 799.98148,436.95822 z M 782.0696,438.87458 C 781.03468,436.11713 777.73369,435.01371 774.70571,436.40634 C 771.67776,437.79897 770.06389,441.16285 771.09883,443.92032 C 772.13378,446.67779 775.42586,447.78531 778.45382,446.39268 C 781.48179,445.00003 783.10453,441.63203 782.0696,438.87458 z M 787.23442,467.79236 C 786.44787,465.69668 783.12995,464.86202 781.45936,465.63037 C 779.78874,466.39874 779.07663,468.72384 779.86318,470.81954 C 780.64973,472.91519 782.63718,473.98799 784.30777,473.21964 C 785.97837,472.4513 788.02094,469.88802 787.23442,467.79236 z "
       id="path3760"
       sodipodi:nodetypes="ccscsssssssscsssscsssscsssscsssscsssscsssscsssccssss"
       inkscape:export-filename="C:\cutting files\ladybug2009.png"
       inkscape:export-xdpi="90"
       inkscape:export-ydpi="90" />
  </g>
</svg>
